<?xml version="1.0" encoding="UTF-8"?>
<svg version="1.1" viewBox="0 0 2048 2048" width="512" height="512" xmlns="http://www.w3.org/2000/svg">
<path transform="translate(173,319)" d="m0 0h1510l26 2 18 4 16 6 16 8 12 8 10 8 13 12 11 14 10 16 8 18 5 15 3 17 1 13 1 49 49 1 19 2 18 4 20 8 16 9 16 12 11 10 9 11 8 11 8 14 5 11 7 21 3 18 1 21v909l-1 26-3 18-8 24-11 21-9 12-9 11-8 8-13 10-18 11-16 7-17 5-15 3-11 1-67 1-1465-1-21-3-15-4-21-9-16-10-14-11-15-15-12-17-9-16-6-15-4-15-3-20-1-40v-15h-49l-24-3-21-6-23-11-12-8-13-11-13-13-9-12-8-13-7-14-6-18-4-19-1-13v-937l2-18 5-21 6-15 9-17 10-14 11-12 9-9 15-11 16-9 11-5 16-5 13-3z" fill="#F25248"/>
<path transform="translate(1834,510)" d="m0 0h48l19 2 18 4 20 8 16 9 16 12 11 10 9 11 8 11 8 14 5 11 7 21 3 18 1 21v909l-1 26-3 18-8 24-11 21-9 12-9 11-8 8-13 10-18 11-16 7-17 5-15 3-11 1-67 1-1465-1-21-3-15-4-21-9-16-10-14-11-15-15-12-17-9-16-6-15-4-15-3-20-1-40v-10l2-4 1470-1 21-2 17-4 19-7 21-11 12-9 10-9 8-8 9-12 10-16 8-18 5-16 3-16 1-13 1-830 1-48z" fill="#455CA8"/>
<path transform="translate(1700,324)" d="m0 0 12 2 7 1 6 1 9 4h3v3h3v2h5v2h3v2l4-1 4 3v2h5l3 2 7 4h2v2h2l1 4 4 1v2l4 1v2l5-1 10 11 10 14 9 16 6 15 4 12 3 17 1 13 1 49 1 1-1 57-1 830-2 18-4 18-8 21-7 13-11 16-12 13-8 8-15 11-23 12-24 8-19 3-12 1-1472 1v-2h-49l-24-3-21-6-23-11-12-8-13-11-13-13-9-12-8-13-7-14-6-18-4-19v-12l1 2 3 1 8-1 1-1 16-1 15 1 8-1 15 1h54l37-1h30l2 1 1-2v2l7-1h38l18 1h29l89 1h296l77-1h28l21-1 5 1 40-1h333l16-1 7-1h10l15-2 3 1 1-2h9l5-2 17-2h3l1-2h11v-2l9-2 7-1 8-3 10-2 2-2 20-5 6-2 10-3 5-2h3v-2l9-4h5v-2l9-3 6-1v-2l8-3 8-4 12-5 7-2 6-1h9l1-4 12-3-1-4h-2v-2l-6 1-1-2-13-1v-1l35-1h74l51-1v-2l13-5 9-6 7-8 5-11 3-12v-11l-4-14-7-11-10-9-13-6-5-1v-2h-10l-4-2 3-4h6l4-2-5-1v-2h-2l-4-8 4-10h2l2-4 1-3h2l1-4 8-13h2l2-6 6-10 7-11 11-22 3-7h2l3-9 6-14 3-8h2l2-10 3-7 3-9 3-8 4-16 3-9 2-8 4-15 2-12 3-16 2-19 2-11 1-27 1-49v-27l-1-19v-154l1-11v-16l-1-5 1-12-1-8 1-11v-122l-1-25v-39l1-14v-12l-1-2 1-6v-14l1-5-1-14 1-5v-12l1-2h2v-2z" fill="#D44A40"/>
<path transform="translate(259,540)" d="m0 0h227l16 4 11 6 9 8 8 15 2 7 1 12v158l-2 13-5 12-5 8-7 7-13 7-7 2-15 1h-222l-13-4-9-5-10-9-6-9-4-10-2-15v-132l1-36 3-10 7-10 4-5 8-6 12-6z" fill="#FFD019"/>
<path transform="translate(931,1219)" d="m0 0h672l10 3 9 5 10 9 7 11 4 14v11l-3 12-6 12-9 10-14 7-6 2-7 1h-665l-12-3-10-5-10-9-6-9-5-14v-15l3-12 5-9 9-10 8-6 11-4z" fill="#E7F1F9"/>
<path transform="translate(1438,541)" d="m0 0h162l12 3 11 6 9 8 6 10 4 10 1 5v12l-3 12-5 10-7 9-12 8-13 4-117 1h-43l-14-2-9-4-9-6-7-7-6-11-4-13v-11l3-12 5-10 9-10 8-6 9-4z" fill="#E7F1F9"/>
<path transform="translate(1375 1e3)" d="m0 0h15l9 3 9 7 6 8 3 8 1 4v9l-3 11-8 11-8 6-10 3h-15l-9-4-6-4-7-8-5-13v-11l3-10 6-9 8-7z" fill="#E7F1F9"/>
<path transform="translate(1143 1e3)" d="m0 0h14l11 4 8 6 4 5 4 7 2 9v8l-3 11-7 10-9 7-10 3h-15l-9-4-6-4-7-8-5-13v-11l3-10 6-9 7-6 8-4z" fill="#E7F1F9"/>
<path transform="translate(1259 1e3)" d="m0 0h14l11 4 9 7 7 11 2 9v8l-3 11-7 10-9 7-11 3h-13l-10-4-6-4-7-8-4-10-1-4v-10l3-10 6-9 7-6 8-4z" fill="#E7F1F9"/>
<path transform="translate(242 1e3)" d="m0 0h15l11 4 10 9 5 8 2 8v12l-4 11-6 8-7 6-8 3-4 1h-14l-10-4-9-7-6-10-3-10 1-13 6-12 4-5 9-6z" fill="#E7F1F9"/>
<path transform="translate(474 1e3)" d="m0 0h15l11 4 10 9 5 8 2 7v13l-4 11-6 8-7 6-8 3-4 1h-14l-10-4-9-7-6-10-3-11 1-12 6-12 5-5 6-5z" fill="#E7F1F9"/>
<path transform="translate(693 1e3)" d="m0 0h15l10 4 9 7 5 7 3 8v17l-4 10-7 9-10 6-7 2h-14l-11-4-10-9-4-6-3-8v-15l5-12 7-8 9-6z" fill="#E7F1F9"/>
<path transform="translate(358 1e3)" d="m0 0h15l11 4 10 9 5 8 2 8v12l-4 11-6 8-7 6-12 4h-14l-10-4-9-7-6-10-3-11 1-12 6-12 5-5 6-5z" fill="#E7F1F9"/>
<path transform="translate(925 1e3)" d="m0 0h15l10 4 9 7 5 7 3 8v17l-4 10-9 10-8 5-7 2h-14l-11-4-10-9-6-11-1-4v-14l4-10 4-6 9-8z" fill="#E7F1F9"/>
<path transform="translate(809 1e3)" d="m0 0h15l10 4 8 6 6 8 3 8v17l-4 10-9 10-8 5-8 2h-13l-9-3-8-6-6-7-5-12v-14l4-10 4-6 9-8z" fill="#E7F1F9"/>
<path transform="translate(30,1425)" d="m0 0 4 2 4 11 4 6 2 9 1 3h2l2 8h2v7h4v2l3 1 2 4 4 7 4 2v2l4 2 2 4-1 4-13-13-9-12-8-13-7-14-6-18z" fill="#F25746"/>
<path transform="translate(447,1033)" d="m0 0h1l3 16 2 5-1 3-4-8-2-8z" fill="#F9FBFC"/>
<path transform="translate(331,1036)" d="m0 0 2 4 3 12 1 5-3-3-4-13z" fill="#F8FBFC"/>
<path transform="translate(782,1044)" d="m0 0 4 5 2 7 1 3h-2l-5-11z" fill="#FAFBFD"/>
<path transform="translate(898,1044)" d="m0 0 1 3h2l4 12h-2l-5-10z" fill="#F9FBFC"/>
</svg>
