<?xml version="1.0" encoding="UTF-8"?>
<svg version="1.1" viewBox="0 0 2048 508" width="612" height="152" xmlns="http://www.w3.org/2000/svg">
<path transform="translate(0,7)" d="m0 0h76l3 5 19 56 51 153 14 41 12 36 10 32 3 1 3-9 14-43 15-43 38-110 21-61 15-43 5-14 1-1h68v384l-9 1h-39l-1-1v-311h-4l-2 8-20 58-15 43-18 52-15 43-21 60-15 43-2 4-7 1h-38l-3-5-14-41-15-43-12-36-14-41-19-56-15-43-12-36-5-13-4-2v315l-44 1-5-1z" fill="#ffffff"/>
<path transform="translate(866)" d="m0 0h44l25 5 21 7 16 8 14 9 13 11 9 9 11 14 9 16 8 17 4 11v5l-36 9-9 2h-5l-9-22-9-16-11-14-11-9-10-6-16-7-11-3-8-1h-39l-23 5-16 7-11 6-13 10-10 10-12 17-8 17-6 19-4 16-3 23v43l4 31 5 20 6 16 8 16 7 10 9 10 7 7 14 9 16 8 16 5 9 2 10 1h26l15-2 18-6 17-9 10-8 7-6 11-14 6-10 7-15 8-26 7 1 44 11-2 11-7 20-8 17-10 16-10 13-8 9-8 7-13 10-16 9-16 7-21 6-25 4h-35l-23-3-14-3-16-5-15-6-16-9-13-10-13-12-9-11-9-13-8-14-7-15-7-19-6-22-4-23-3-33 1-22 3-25 4-20 5-16 6-16 12-23 10-14 12-14 13-12 13-9 17-10 25-10 18-5z" fill="#ffffff"/>
<path transform="translate(1763,7)" d="m0 0h45l1 1v383l-10 1h-32l-2-3v-28l-4 1-2 4-7 8-10 8-14 8-18 6-11 1-3 1h-20l-2-1-13-2-13-4-19-9-14-10-16-16-10-15-9-17-6-17-4-17-3-21v-34l3-22 5-21 8-22 10-17 8-10 13-13 14-9 16-8 18-5 12-2h21l20 4 15 6 11 7 13 11 5 5 4 1-1-9v-116zm-81 138-16 4-10 5-11 8-11 12-7 12-6 16-3 15-3 31 1 23 4 25 6 18 8 13 8 10 10 9 14 8 12 4 6 1h16l16-4 12-6 11-9 9-10 8-13 7-21 3-20v-40l-2-18-5-19-7-16-7-11-12-12-13-8-10-4-13-3z" fill="#ffffff"/>
<path transform="translate(1208,106)" d="m0 0h30l24 3 21 6 16 8 11 8 9 11 6 13 4 14 1 5 1 19 1 133 2 27 3 16 6 16 2 6-2 1h-46l-5-10-5-20v-2l-8 4-14 10-17 10-21 8-18 4-14 2h-24l-7-1-12-2-16-5-17-9-12-11-10-14-5-12-3-11-1-10v-11l3-16 5-13 7-12 11-12 12-9 21-10 20-5 18-3 39-5 34-6 22-6 2-1v-25l-4-16-6-9-8-7-16-7-21-4h-23l-19 3-11 4-11 7-6 7-10 19-4 11-1 1-37-4-8-2 1-8 6-18 9-17 9-11 9-8 14-8 12-6 22-6zm73 146-28 8-31 6-36 6-19 5-10 5-10 9-7 14-1 4v15l3 10 6 9 8 8 12 6 12 3h31l14-3 11-4 15-8 12-10 9-12 6-12 4-18 1-12v-29z" fill="#ffffff"/>
<path transform="translate(419,112)" d="m0 0 50 1 4 9 19 53 22 61 17 47 10 30 5 17h3l12-38 13-37 14-38 11-30 17-46 10-27 1-1h47l-7 21-20 53-51 136-20 53-15 40-13 31-11 21-9 12-11 11-10 6-12 5-17 3-22-2-13-4-4-29-1-15 8 1 10 2h18l14-4 10-7 6-7 8-16 10-28 1-7-10-25-34-90-11-28-6-16-23-61-15-39-5-14z" fill="#ffffff"/>
<path transform="translate(1501,106)" d="m0 0h14l18 4 16 7 6 4-1 7-14 37-6-2-12-5-9-2h-16l-10 3-12 7-8 9-6 12-5 16-3 19-1 13-1 156-3 1h-43l-1-1v-278h42l1 4v29l5-1 7-11 8-10 7-7 12-7z" fill="#ffffff"/>
<path transform="translate(1937,196)" d="m0 0h24l17 4 17 7 12 7 11 9 10 11 8 14 6 13 6 21v26l-5 18-7 16-7 12-12 13-9 8-14 8-15 6-16 4h-31l-18-5-19-9-11-8-13-13-7-10-8-16-5-15-2-12v-20l3-16 6-16 7-13 9-12 8-8 11-8 10-6 15-6 12-3zm1 16-17 4-17 8-14 11-8 9-9 15-6 16-2 16v9l2 14 6 16 6 11 7 9 8 8 10 7 16 8 16 4h25l15-4 14-6 10-7 10-9 6-7 8-14 5-13 2-11v-22l-3-14-7-16-7-11-9-10-11-8-16-8-14-4-6-1z" fill="#ffffff"/>
<path transform="translate(1905,243)" d="m0 0h52l16 4 9 8 4 8 1 3v13l-5 10-8 8-9 4 1 6 9 11 15 23 4 6v2l-10 1h-9l-6-8-13-22-7-9-5-4-8-2h-13l-1 44-3 1h-13l-1-1zm17 15v31h33l7-3 5-5 2-4-1-10-6-7-5-2z" fill="#ffffff"/>
</svg>
