<?xml version="1.0" encoding="UTF-8"?>
<svg version="1.1" viewBox="0 0 2048 2048" width="512" height="512" xmlns="http://www.w3.org/2000/svg">
<path transform="translate(905)" d="m0 0h239l29 7 22 8 17 9 12 8 13 10 14 13 9 11 10 13 9 16 8 17 6 19 4 20 1 7 1 24v92l1 2 33 13 27 12 21 10 19 10 20 11 28 17 33 22 19 14 13 10 20 16 6-2 22-13 52-30 22-12 21-8 21-5 15-2h33l25 4 19 6 17 7 18 10 15 11 10 9 7 6 7 8 13 17 9 15 12 21 30 52 14 24 30 52 14 25 9 21 6 22 3 21v32l-4 24-6 19-6 15-10 19-10 14-9 11-14 14-14 11-19 12-56 32-24 14h-2l5 34 4 39 2 39v50l-2 40-4 39-5 32 5 2 24 14 52 30 20 13 14 11 17 17 12 16 8 13 8 16 7 19 4 16 3 20v32l-3 19-6 23-9 21-12 22-14 24-30 52-14 24-16 28-14 24-10 16-9 12-11 12-11 11-13 10-20 12-20 9-20 6-15 3-18 2h-21l-23-3-23-6-21-9-24-13-67-39-3-2-5 1-10 9-28 21-18 13-11 7-15 10-32 19-24 13-38 19-33 14-21 8h-2v96l-1 23-4 23-5 16-6 16-9 17-11 16-9 11-17 17-13 10-20 12-20 9-20 6-24 5h-231l-28-6-17-5-16-7-15-8-17-12-13-12-12-12-10-13-11-18-9-19-7-22-4-22-1-13-1-107-27-11-30-13-25-12-25-13-23-13-24-15-12-8-19-13-19-14-14-11-11-9-4-3-4 1-20 11-24 14-19 11-21 12-16 8-15 6-23 6-24 3h-21l-23-3-23-6-21-9-15-8-17-12-13-12-12-12-12-16-9-15-30-52-14-24-16-28-15-26-14-24-10-18-9-20-6-20-4-21-1-12v-15l2-20 4-19 6-18 8-18 8-14 14-19 21-21 18-13 20-12 52-30 21-12-3-24-5-44-2-31v-76l3-39 3-28 4-26v-4l-52-30-24-14-15-9-13-9-13-11-14-14-10-13-9-14-8-15-8-21-5-21-2-13-1-12v-15l3-24 4-17 7-20 10-20 28-48 16-28 30-52 14-24 12-21 12-17 13-15 7-7 14-11 15-10 17-9 21-8 21-5 15-2h33l24 4 20 6 18 8 19 10 24 14 26 15 24 14 4 1 13-11 17-13 19-14 39-26 27-16 24-13 19-10 19-9 30-13 26-10 1-108 2-19 5-23 7-19 8-16 9-15 11-14 14-15 11-9 12-9 15-9 15-7 21-7zm-5 58m-12 3m289 8m2 1m3 2m2 1m2 1m1 1m2 1m1 1m6 4m1 1m1 1m4 3m1 1m1 1m1 1m1 1m1 1m1 1m2 2m1 1m1 1m2 3m1 1m1 1m2 3m1 1m1 2m2 3m2 3m18 184 1 3zm2 10m1 2m10 9m-469 3m486 5m-546 19m-26 12m-6 3m-2 1m-2 1m703 20m-745 3m765 9m3 2m-1104 1m1369 0m-1373 1m1371 0m-1377 2m314 5m1148 3m7 4m-329 1m331 0m-1368 1m1369 0m3 2m-328 2m331 0m-328 2m331 0m1 1m1 1m1 1m-1360 3m1364 0m1 1m1 1m1 1m-1360 1m1361 0m1 1m1 1m-1547 2m1549 1m1 1m-1354 1m548 0v1h61v-1zm807 0m-823 1v1h12v-1zm82 0v1h12v-1zm742 0m1 1m-714 1m715 0 1 2zm-852 1m144 0m709 1m-879 3m881 0m-887 1m888 0m-893 1m894 1m-904 1m-5 1m248 0m-253 1m916 0m-653 1m654 0m-925 1m-4 1m283 0m647 0m-934 1m-8 2m944 0m-1582 1m249 0m699 0m-324 3m-3 1m965 2m-975 1m977 2m-989 2m991 2m-598 1m599 0m-1e3 1m703 0m-1008 1m1012 0m297 0m-584 4m586 0m2 3m-1031 1m-7 3m469 1m573 2m1 2m-561 2m-279 1v1h61v-1zm-13 1v1h9v-1zm81 0v1h7v-1zm215 0m560 1m-752 1m196 0m-325 1m137 0m745 0m-553 1m554 1m-550 1m551 0m-909 1m-6 1m368 0m548 0m-920 1m376 1m-386 1m-4 1m235 0m701 0m-940 1m-4 1m-5 1m412 0m539 0m-954 1m268 0m149 0m-421 1m-4 1m-4 1m-3 1m439 0m534 2m-984 1m455 0m-593 1m135 0m460 0m-463 1m992 0m-526 1m-472 1m474 0m525 0m-1e3 1m1e3 1m-1658 1m1137 0m-490 1m491 0m521 0m-645 1m126 0m520 0m-519 1m2 1m518 0m-1147 1m122 0m389 1m121 0m516 0m-514 1m1 1m-523 1m525 0m513 0m-1670 1m630 0m528 0m2 1m511 0m-1163 2m115 0m1049 0m-1051 1m543 0m2 1m508 1m-1678 1m618 0m555 0m1 1m3 2m1 1m2 1m502 1m-1686 1m1187 0m1 1m499 0m-498 1m2 1m1 1m-595 1m596 0m-103 1m105 0m495 0m-1694 1m1695 1m-1203 1m102 0m609 0m493 0m-594 1m102 0m-1207 2m1210 0m-620 1m621 0m490 0m-1702 1m1113 0m100 0m-98 1m1 1m100 0m-730 1m98 0m534 0m99 0m487 0m-584 1m98 0m487 0m-484 2m485 0m-1710 1m485 0m644 0m97 0m-96 1m582 1m-1232 2m95 0m656 0m-1234 1m1140 0m95 0m482 1m-1718 1m1144 0m95 0m480 0m-573 1m94 0m-93 1m94 0m479 0m-478 1m-92 1m93 0m-1246 1m570 0m585 0m92 0m-91 1m92 0m477 0m-1726 1m1159 0m91 0m-90 1m92 0m-778 1m688 0m91 0m475 0m-1255 1m690 0m91 0m1 1m-1258 1m474 0m785 0m-786 1m89 0m698 0m-788 1m700 0m89 0m-790 1m702 0m89 0m-87 1m88 0m472 0m-559 1m88 0m-796 1m710 0m87 0m471 0m-557 1m87 0m471 0m-470 1m-716 1m717 0m470 0m-555 1m86 0m1 1m469 0m-1746 1m1193 0m85 0m-811 1m727 0m85 0m468 0m-1281 1m729 0m85 0m468 0m-551 1m84 0m-817 1m734 0m84 0m467 0m-1286 1m736 0m-737 1m738 0m84 0m466 0m-548 1m83 0m-825 1m743 0m-744 1m83 0m1210 0m-1758 1m464 0m830 0m465 1m-1297 1m752 0m-753 1m1299 0m-1300 1m757 0m81 0m-80 1m81 0m-841 1m761 0m81 0m-843 1m763 0m81 0m-845 1m765 0m81 0m461 0m-541 1m81 0m-79 1m80 0m460 0m-1230 1m691 0m80 0m-772 1m693 0m80 0m-79 1m80 0m-79 1m80 0m-79 1m80 0m-860 1m781 0m80 0m-862 1m783 0m80 0m-864 1m79 0m786 0m-866 1m79 0m788 0m-868 1m79 0m790 0m-870 1m871 0m-872 1m873 0m-874 1m796 0m79 0m-876 1m877 0 2 4 3 2-2-4zm454 2m1 2m-450 2m-476 1m61 0m416 0m-890 1m407 0m72 0m412 0m1 1 2 4v-3zm-499 2m949 0m-844 1m-502 1m899 0m-1347 1m447 0m511 0m390 0m447 0m-1349 1m385 0m518 0m1 2m446 0m-1352 1m526 0m381 0m-908 1m377 0m532 0m-910 1m911 0 1 2zm-912 1m537 0m376 1m-544 1m545 0m-916 1m546 0m371 0m-918 1m919 0m1 1 1 2zm-556 1m189 0m-191 1m193 0m366 0m-924 1m560 0m365 0m-363 1m364 0m-854 1m287 0m205 0m289 0m74 0 1 2zm-856 1m494 0m289 0m-784 1m497 0m361 0m-932 1m73 0m500 0m287 0m73 0m-861 1m503 0m-1011 1m507 0m505 0m358 0m-864 1m508 0m284 0m73 0m-938 1m72 0m510 0m284 0m73 0 1 2zm-868 1m513 0m283 0m-281 1m282 0m72 0m-942 1m589 0m282 0m72 0m-944 1m72 0m520 0m281 0m72 0 1 2zm-874 1m522 0m281 0m-804 1m524 0m281 0 1 2zm71 0m-948 1m71 0m527 0m351 0m-950 1m71 0m529 0m279 0m72 0 1 2zm-349 1m278 0m-277 1m278 0m71 0m-954 1m884 0m71 0m-956 1m609 0m277 0m-276 1m277 0m70 0m-958 1m70 0m542 0m277 0m70 0m-346 1m347 0 1 2zm-345 1m275 0m-274 1m275 0m70 0m-964 1m620 0m275 0m70 0 1 2zm-896 1m552 0m1 1 3 4 2-1-3-3zm344 0m-69 1m70 0m-900 1m831 0m-832 1m833 0m69 0m-972 1m69 0m395 0m167 0m273 0 1 2zm69 0m-516 1 4 1zm54 0m121 0m-179 1m62 0m118 0m272 0m69 0m-1390 1 1 4zm483 0m567 0m272 0m69 0m-909 1m379 0m190 0m272 0m-467 1m196 0m340 0m412 0 1 4zm-1392 1m442 0m93 0m106 0m271 0m69 0m-982 1m643 0m271 0m-371 1m101 0m271 0m68 0m-1393 1 1 3zm844 0m211 0m271 0 1 2zm68 0m-436 1m98 0m-95 1m96 0m270 0m68 0m-988 1m556 0m95 0m270 0m68 0m-430 1m93 0m-317 1m226 0m92 0 2 4v-3zm337 0m-992 1m336 0m229 0m360 0m68 0 1 2zm-926 1m268 0m232 0m359 0m-592 1m235 0m425 0m-996 1m335 0m238 0m87 0m269 0m-862 1m267 0m241 0m86 0m269 0m67 0m-1398 1 1 2zm400 0m67 0m596 0m336 0m-420 1m85 0m268 0m-351 1m84 0m268 0m67 0m-1399 1 1 2zm397 0m334 0m250 0m352 0m-603 1m253 0m82 0m-669 1m414 0m174 0m82 0m268 0m67 0m-1006 1m414 0m177 0m81 0m268 0m-1334 1m1401 0m-596 1m183 0m414 0 1 2zm-413 1m79 0m268 0m-878 1m532 0m79 0 1 2zm334 0m-411 1m345 0m-1335 1 1 2zm991 0m77 0m268 0m66 0m-1014 1m408 0m196 0m77 0m-76 1m344 0m-1336 1m386 0m607 0m76 0m268 0m66 0m-952 1m266 0m278 0m75 0m-1069 1m995 0m75 0 1 2zm267 0m-341 1m342 0m448 0m-1785 1m713 0m283 0m407 0m-1022 1m616 0m-996 1 1 2zm997 0m406 0m-405 1m73 0m333 0 1 2zm-1403 1m998 0m340 0m-961 1m622 0m72 0m709 0m-1779 1m999 0m339 0m65 0m-403 1m339 0m65 0m374 0m-1777 1m1e3 0m71 0m-1070 1 1 2zm1e3 0m338 0m65 0m-402 1m70 0m-1070 1m1e3 0m70 0m332 0m-1034 1m633 0m337 0m-1338 1m698 0m304 0m-635 1m636 0m767 0m-1769 1m1e3 0m336 0m64 0m-1402 1m428 0m575 0m-1e3 1 1 2zm1e3 0m67 0m268 0m64 0m363 0m-362 1 1 2zm-1402 1m1070 0m268 0m-1337 1 1 2zm1e3 0m758 0m-757 1m-1e3 1m1e3 0m334 0m-1337 1m751 0m318 0m269 1m-1337 1m1e3 0m65 0m332 0m-1400 1m1e3 0m333 0m64 0m-1400 1m1068 0m1 2m269 0m-332 2m64 0m-63 1m-1e3 1m1066 0m332 0m-1397 1m1e3 0m396 0 1 2zm-1397 1m1065 0m-726 1m996 0m-1333 1m1e3 0m-1e3 1m335 0m998 0m63 1m-332 1m270 0m-1330 1m1393 0m-1392 1m1 1m1392 0m-1390 1m324 0 1 2zm672 0m332 0m-1327 1m385 0m1e3 0m-1389 1m1056 0m271 0m-1325 1m1388 0 1 2zm-1387 1m993 0m61 0m271 0m-1323 1m1386 0 1 2zm-1385 1m1323 0m-1321 1m1384 0 1 2zm-1383 1m989 0m60 0m272 0m-1319 1m307 0m-306 1m1319 0m62 0m-1379 1m1318 0 1 2zm-1317 1m1379 0m-1377 1m1316 1m359 0m-1672 1m1670 0m-1668 1m293 0m1019 0m-1310 1m1372 0m-1371 1m1310 0m-1308 1m287 0m1022 1m-1023 1m-279 2m2 1m1302 0m-1299 2m1361 0 1 2zm-1359 1m2 1m267 0 1 2zm-266 1m1296 0m61 0m-1355 1m1618 0m-1616 1m2 1m1352 0m-1350 1m1 1m2 1m252 1m60 1m1037 0m-1344 1m1284 0m-1282 1m244 0m60 0 1 2zm-303 1m1e3 0m279 0m60 0m-1340 1m240 0m-236 2m1277 0m296 0m-1571 1m939 0m-938 1m1275 0m-1273 1m1562 0m-1560 1m227 0m1045 0 1 2zm60 0 1 2zm-1328 2m222 0 1 2zm60 0m-281 1m2 1m218 1m1049 0 1 2zm-1262 2m2 1m269 1 1 2zm-60 2m1053 0m-1255 1m1315 0m-1054 1m995 0m-1253 1m198 0 1 2zm-196 1m195 2m1057 0m-1245 2m1 1m245 1m1e3 1m-1061 2m59 0m-236 1m1239 0m-1238 1m1 1m174 0m-173 1m1296 0 1 2zm-1295 1m3 3m226 0m-225 1m1234 1m-1010 2m-59 1m1070 0m220 3 1 2zm-1291 1m1072 0m219 3 1 2zm-1234 1m1017 2m-1018 2m1019 0 1 2zm1 4m216 0 1 3zm-213 12m-356 2m0 2v36h1v-36zm357 0m-301 12v65h1v-65zm521 27 1 2zm-208 25m-369 4 1 4zm57 9m1 1m11 5m6 4m2 1m1 1m1 1m2 1m1 1m1 1m1 1m1 1m1 1m1 1m1 1m1 1m1 1m1 1m1 1m1 1m1 1m1 1 1 2zm1 2m1 1m1 1m1 2m2 3m2 4m-459 13 4 1zm-71 13m0 2 1 2zm483 3 1 3zm-221 13v1h14v-1zm-2 1m18 0m16 14m1 2 1 2zm-52 1 1 2zm53 1 1 3zm-297 1v183h1v-183zm-467 10m0 3 1 2zm212 9m-56 3 1 3zm59 16m-56 4 1 2zm57 0 1 2zm-212 4m156 1 1 2zm1096 9m-1037 2m1 4 1 2zm-57 1m1090 5m-1245 3m1244 1m-1029 2 1 2zm546 1m-65 1m66 0m-68 1m70 0m-548 1 1 2zm476 0m74 0m2 1m2 1m530 0m-613 1m84 0m-612 1m614 0m2 1m466 0 1 2zm-465 1m-558 1 1 2zm463 0m97 0m1 1m1 1m460 0 1 2zm-458 1m-106 1m107 0m-564 1m456 0m109 0m1 1m454 0m58 0m-511 1m-624 1m625 0m-117 1m118 0m1 1m507 0 1 2zm-506 1m665 0 1 4zm-664 1m446 0 1 2zm-445 1m-570 1 1 2zm444 0m127 0m-128 1m129 0m442 0 1 3zm-572 1m131 0m-572 1 1 2zm440 0m133 0 1 2zm439 1 1 2zm-438 1m1 1m-574 1m436 0m139 0m494 0m-59 1 1 2zm-1068 1m634 0m1 1 1 2zm432 0 1 3zm59 0 1 2zm-1125 2m635 0m-576 1m430 0m576 0 1 3zm59 0 1 2zm-488 1m-635 1 1 2zm59 1m577 0m427 0 1 2zm-426 1 1 2zm-815 1m238 1m578 0 1 2zm424 0 1 2zm240 0m-181 1m-1119 1 1 2zm637 0 1 2zm422 1 1 2zm246 0m-187 1 1 2zm-1117 1 1 2zm59 0 1 2zm578 0m420 1 1 2zm-503 1v1h9v-1zm562 0m-1056 1m491 0m12 0m749 0m-1311 1m548 0m507 0 1 2zm-486 1m69 0m476 0m-543 1m1 1m482 0m-578 1m98 0m65 0 1 2zm474 0m-538 1m478 0 1 2zm-1051 1m574 0m-514 1m515 0m63 0 1 2zm472 0 1 2zm-1109 1 1 2zm575 0m474 0 1 2zm-989 1 1 2zm516 0m1 1 1 2zm531 0m-577 1m517 0m-1047 1m60 0m517 0m1 1m468 0 1 2zm60 0m-527 2m526 0 1 2zm-525 1m465 0m-1043 1m60 0m982 1 1 2zm60 0 1 2zm-1041 1 1 2zm-60 1m1040 0 1 2zm60 1m-1039 1m978 1m60 0 1 2zm-61 2 1 2zm-975 1 1 2zm1035 0m-1095 1 1 2zm1349 0m-315 1m-973 1m1033 0 1 2zm-61 1m-1295 1m324 0 1 2zm1031 0 1 2zm263 0m-324 1 1 2zm-1030 1m61 0 1 2zm1029 1m-1028 1 1 2zm1027 1 1 2zm-1026 1 1 2zm965 0m-1026 1m516 0m509 1m61 0 1 2zm280 0m-1365 1m61 0m962 1m61 0 1 2zm-1370 1m348 0m-61 1m62 0 1 2zm1309 0m-806 1m517 0m-1081 1m1019 0 1 2zm-1314 1m357 0m395 0m61 0m562 0m-1079 1 1 2zm518 0m499 0m359 0m-1314 1m395 0 1 3zm165 0m456 0 1 2zm-1077 2m62 0m953 0m365 0m-304 1m-1075 1m62 0m394 0 1 2zm68 1m550 0m-1011 1m463 0m22 0m464 0m-745 1m261 0m17 0m-481 1m393 0m160 0 1 2zm394 0m-1009 1m63 1m393 0 1 2zm614 0m319 0m-1388 1m63 1m393 0 1 2zm157 0m-612 1m63 1m548 0m455 0m-610 1m547 0m-939 1m546 0m455 0m-1063 1m63 0 1 2zm392 0m545 0m-544 1 1 2zm606 0 1 2zm-1061 1m63 0 1 2zm542 1m-604 1m63 0 1 2zm392 0m541 0m-540 1m147 0m-539 1 1 2zm931 0m63 0m-601 1m600 0m-992 1 1 2zm393 0 1 2zm-456 1m64 1m393 0m597 0m-1053 1m457 0 1 2zm139 0m393 0m-925 1m988 0m-1051 1m64 0 1 2zm393 0m530 0m414 0m-943 1m135 0m202 0 1 2zm255 0m-1049 1m64 0m394 1m-457 1m64 0m394 0m131 0m813 0m-943 1m129 0m205 0v34h1v-34zm-792 1m64 0m522 0m-521 1m394 0m126 0m395 0m64 0m359 0m-943 1m124 0m-518 1m395 0m122 0m-516 1 1 2zm395 0m120 0m396 0m64 0m363 0m-1402 1 1 2zm460 0m118 0m-513 1m396 0m116 0m-576 1m461 0m114 0m828 0m-1338 1m183 0v34l1 7h1l-1-41zm326 0m-573 1m65 0 1 2zm507 0m398 0m-506 1m107 0m160 0v11h1v-11zm303 0m-1033 1m65 0m401 1m566 0m-1031 1m65 0m401 0m-400 1 1 2zm402 0m497 0m439 0m-1403 1m300 0 1 3zm168 0m92 0m-559 1 1 2zm65 0m404 0m-403 1 1 2zm404 0m-469 1m471 0m-405 1m232 0v19h1v-19zm175 0m78 0m-550 1m66 0 1 2zm891 0m-481 1m546 0m-1021 1m66 0m412 0m925 0m-1402 1 1 2zm66 0 1 2zm413 0m244 0 1 2zm-722 2m66 0m885 0m-462 1m38 0m-526 1m66 0m426 0m-425 1m654 0m227 0m-1 1m-945 1m66 0m1 1m943 0m-1009 1m67 0 1 2zm651 0m-717 2m67 0m-66 1m67 0 1 2zm649 0 1 2zm-715 2m67 0m1 1 1 2zm867 0m67 0m-714 1 1 4zm646 0m-932 1m67 0m1 1m863 0m67 0m-997 1m929 0m-928 1 1 2zm67 0m1 1m642 0m284 0m-993 1m68 0m216 0m641 0m-924 1 1 2zm68 0 1 2zm216 1m-283 1m68 0m695 0 1 3zm-762 1m68 0 1 2zm851 0m68 0m-986 2m68 0m1 1m847 0m68 0m-983 1m69 0 1 2zm845 0m-913 1m912 0m-843 1m911 0m-979 1m69 0m841 0m-909 1m69 0m152 0 1 2zm66 0m621 0m-907 1 1 2zm69 0 1 2zm219 0m618 0m-616 1m-220 1m151 0 1 2zm-150 1m902 0m-971 1m70 0m681 0m-750 1m70 0 1 2zm149 0 1 2zm749 1m-967 1m70 0m149 0 1 2zm-218 1m70 0m825 0m-894 1 1 2zm70 0m148 0 1 2zm675 0m70 0m-1 1m-961 1m70 0m148 0 1 2zm525 0m-742 1m70 0m819 0m-818 1m147 0 1 2zm670 0m70 0m-957 1m71 0m815 0m-885 1m71 0 1 3v-3zm146 0 1 2zm667 0m-1 1m71 0m-736 1m664 0m-880 1m71 0m663 0m-733 1m71 0m145 0m733 0m-877 1m145 0 1 2zm515 0m216 0m-947 1m72 0m658 0m145 0m71 0m-945 1m72 0m144 0m657 0m-872 1m72 0 2 4v-3zm144 0 1 2zm511 0m144 0m72 0m-73 1m-869 1m216 0m652 0m-867 1m216 0m507 0m-722 1m72 0m144 0m505 0m216 0m-936 1 1 2zm72 0m-507 1 1 2zm508 0m1 1m-72 1m73 0m143 0m715 0m436 0 1 3zm-1293 1m640 0m216 0m-1366 1 1 4zm511 0m638 0m-711 1m74 0m636 0m-709 1m74 0m143 0m708 0m-924 1 1 2zm74 0m632 0m217 0m-705 1m487 0m217 0m-921 1m218 0m485 0m-702 1m218 0m-217 1m218 0m699 0m-916 1 1 2zm696 0m219 0m-695 1m-219 1m220 0m-219 1m220 0m-664 1m445 0m221 0m-220 1m221 0m686 0m445 0 1 2zm-1351 1m222 0m2 1m-223 1m224 0m-223 1m225 0m-224 1m226 0m673 0m-671 1m670 0m-667 1m-229 1m1343 0m-1342 1m-449 1 1 2zm450 0m236 0m418 0m237 0m-890 1 1 2zm238 0 4 1zm411 0m240 0m-1 1m-1338 1m451 0m886 0m-885 1m884 0m452 0m-1787 1 1 2zm452 0m882 0m-881 1m880 0m453 0m-1785 1 1 2zm453 0m878 0m-877 1m79 0m-532 1m454 0m79 0m796 0m-874 1m79 0m794 0m454 0m-1781 1 1 2zm455 0m79 0m792 0m-870 1m79 0m790 0m455 0m-1779 1 1 2zm456 0v2l2-1zm79 0m788 0m-787 1m786 0m456 0m-1777 1 1 2zm457 0 1 2zm79 0m784 0m-783 1m782 0m457 0m-1775 1m457 0 3 3-1-3zm80 0 1 2 2-1zm700 0m80 0m-1 1m458 0m-1773 1 1 2zm539 0m695 0m80 0m-855 1m81 0m693 0m80 0m459 0m-1771 1m459 0m81 0m691 0m80 0m-851 1m81 0m689 0m80 0m460 0m-1769 1m460 0m81 0m767 0m-1307 1 1 2zm460 0m81 0m684 0m81 0m-845 1m81 0m682 0m81 0m-843 1m82 0m679 0m-760 1m82 0m677 0m543 0m-1763 1m462 0m82 0m675 0m-756 1m1299 0m-1761 1m463 0m-462 1 1 2zm463 0m83 0m-82 1m83 0m665 0m-1211 1m464 0m84 0m-83 1m84 0m-548 1m465 0m84 0m-83 1m84 0m1204 0m-1287 1m84 0m-549 1m466 0m85 0m1 1m1 1m729 0m-813 1m86 0m726 0m-1279 1m468 0m86 0m-553 1m554 0m1191 0m-1189 1m633 0m86 0m-1274 1m470 0v2l2-1zm86 0m717 0m-716 1m715 0m-800 1m87 0m712 0m-798 1m87 0m710 0m-1268 1m472 0m87 0m708 0m-794 1m88 0m705 0m472 0m-1264 1m88 0m703 0m-1263 1m473 0m89 0m700 0m-788 1m89 0m698 0m-786 1m785 0m-784 1m90 0m693 0m474 0m-1256 1m91 0m690 0m-780 1m91 0m597 0m91 0m475 0m-1253 1m91 0m-566 1m476 0m92 0m682 0m-773 1m92 0m680 0m-771 1m93 0m677 0m-1246 1m1245 0m-766 1m93 0m672 0m-764 1m94 0m575 0m94 0m-762 1m94 0m573 0m94 0m-665 1m1 1m1142 0m-1140 1m658 0m-752 1m95 0m1138 0m-1136 1m-578 1m580 0m1133 0m-1228 1m96 0m-580 1m485 0m97 0m-96 1m97 0m1127 0m-1125 1m539 1m585 0m-1219 1m98 0m534 0m99 0m-1218 1m488 0m99 0m-98 1m100 0m-588 1m490 0m100 0m623 0m-722 1m100 0m1110 2m-1104 1m611 0m-712 1m102 0m1101 1m-1695 1m495 0m103 0m-102 1m104 0m-103 1m105 0m-600 1m497 0m105 0m-104 1m106 0m-603 1m1083 0m-583 1m107 0m1080 2m-612 1m110 0m-1182 1m612 0m568 0m-676 1m-503 1m506 1m-505 1m506 0m113 0m-110 2m114 0m-621 1m623 0m543 0m-656 1m116 0m1048 0m-1673 1m512 1m117 0m3 1m527 0m-644 1m119 0m-631 2m515 0m513 1m122 0m516 0m-1148 1m123 0m5 2m-123 1m126 0m368 0m-493 1m128 0m-648 1m651 0m3 1m1e3 0m-1657 1m656 0m-655 1m525 0m132 0m4 1m-133 1m136 0m3 1m321 0m136 0m-1122 1m1650 1m-1649 1m1 1m534 1m145 0m966 2m-1643 1m539 1m154 0m949 0m-1640 2m545 2m548 0m-175 3m718 0m-1632 2m1 2m888 0m-7 1m747 0m-1627 1m1 1m1625 0m-843 1v1h6v-1zm60 0v1h8v-1zm-841 1m799 0v1h36v-1zm262 0m-7 3m567 0m-1619 1m1618 1m-1616 2m1613 3m-581 1m-1029 1m581 0m1028 0m-1608 2m1018 1m-1016 2m1 2m288 0v1h11v-1zm717 0m300-1-4 2h11v-1zm-1020 2m15 0m999 0m13 0m-1311 1m282 0m1033 0m-1035 1m24 0m-303 1m277 0m28 0m2 1m300 0m714 0m-1320 1m307 0m1015 0m-1321 1m308 0m1285 0m-1284 1m670 0m-978 1m309 0m1016 0m-1015 1m1017 0m-1015 1m1017 0m-1327 1m311 0m652 0m-651 1m1018 0m-1329 1m312 0m1019 0m-1018 1m1020 0m-1332 1m314 0m955 0m64 0m-1018 1m325 0m695 0m-1019 1m1021 0m-1335 1m315 0m947 1m76 0m-1020 1m608 0m414 0m-1338 1m317 0m1023 0m-1339 1 1 2zm317 0m1023 0m-1110 1m88 0m1024 0m-1341 1m319 0m1024 0m228 0m-1251 1m1025 0m-1344 1m320 0m1025 0m-1344 1m220 0m100 0m1026 0m-1128 1m103 0m1027 0m-1347 1m322 0m-321 1m322 0m-321 1 1 2zm322 0m1028 0m-1027 1m527 0m501 0m-1350 1m324 0m-323 1m324 0m1029 0m-1352 1 1 3v-3zm324 0m483 0v1h8v-1zm423 0m325 0m-1229 1m445 0v1h27v-1zm584 0m199 0m-1227 1m1030 0m-1355 1m326 0m1031 0m-1356 1m191 0m136 0m895 0m-1221 1m188 0m139 0m1031 0m-1357 1m327 0m1032 0m186 0m-1544 1m328 0m1032 0m183 0m-1542 1m328 0m885 0m328 0m-1540 1v2l2-1zm328 0m1033 0m178 0m-1210 1m1034 0m175 0m-1536 1m329 0m1206 0m-1534 1m329 0m1204 0m-1532 1m1364 0m-1363 1m330 0m1035 0m-1364 1m330 0m-329 1m331 0m863 0m330 0m-1522 1m330 0m1036 0m155 0m-1520 1m330 0m1037 0m-1366 1m331 0m-329 1m330 0m1183 0m-1512 1m330 0m1038 0m-1366 1m330 0m-329 1m1369 0m-1367 1m330 0m841 0m-1170 1m330 0m838 0m201 0m-1367 1m330 0m-328 1m329 0m-328 1m330 0m1040 0m-1368 1m329 0m1041 0m-1368 1m329 0m-327 1m328 0m1042 0m-1368 1m328 0m817 0m225 0m-1368 1m327 0m814 0m229 0m-1041 1m-323 1m324 0m1045 0m-1043 1m-321 1m322 0m2 1m1 1m-314 1m316 0m1053 0m-1366 1m314 0m790 0m265 0m-1053 1m2 1m1 1m2 1m3 2m2 1m1 1m2 1m2 1m3 2m750 0m-748 1m2 1m1 1m2 1m5 3m2 1m2 1m5 3m2 1m2 1m4 2m2 1m1 1m4 2m4 2m2 1m2 1m2 1m2 1m4 2m9 4m2 1m16 7m5 2m4 2m546 11m-10 4m-481 7m1 1m2 1m1 1m1 1m1 1m1 1m1 1m1 1m5 128m0 2v11h1v-11zm1 13v11h1v-11zm434 8m-433 6 1 2zm432 3m-431 3 1 3zm1 4 1 2zm1 4 1 2zm1 3m1 2 1 2zm1 3 1 2zm1 3m418 0m-417 2m416 0m-415 1 1 2zm414 2m-413 1m1 1 1 2zm411 0m-1 1m-409 2m408 0m-407 1 1 2zm1 2m1 1 1 2zm403 0m-402 2 1 2zm401 0m-1 1m-399 1m1 2m1 1m1 1 1 2zm393 0m-392 2m1 1 1 3v-3zm389 0m-1 1m-386 2m385 0m-384 1 1 3v-3zm383 0m-1 1m-1 1m-379 1m378 0m-377 1m1 1m1 1 1 3 2-1zm372 1m-1 1m-368 1v2l2-1zm367 0m-1 1m-364 1m363 0m-362 1m361 0m-360 1m1 1m1 1m1 1m2 1m349 0m-348 1m1 1m3 2m1 1m2 1m1 1m2 1m1 1m2 1m2 1m2 1m1 1m2 1m2 1m3 1m2 1m2 1m5 2m3 1m4 1m11 3m239 0v1h5v-1zm-234 1v1h5v-1z" fill="#99A4AA"/>
<path transform="translate(1007,438)" d="m0 0h29l42 2 39 5 36 7 28 7 26 8 31 11 30 13 19 9 22 12 14 8 13 8 22 14v2l5 2 6 4v2l4 1 5 4 2 1v2l5 2v2l5 2v2l4 1 7 7 5 3 15 14 41 41 7 8 6 7v3l4 2 11 14 11 15v3l3 1 4 6v3h2l2 3v3h2v3h2v3h2v3h2l1 5h2l3 6v2h2l6 12 4 6 5 10 9 17 6 14 4 9 11 27 12 36 8 29 7 32 6 40 2 23 1 34v16l-1 38-2 24-5 35-7 33-9 34-14 41-5 14-6 12-8 19-10 19-13 23-13 21-10 15-7 9-3 5-6 8-1 2h-2l-2 5h-2l-1 4-5 5-4 6-3 3-7 8h-2l-1 4-14 14h-2v2h-2l-2 4-6 6h-2v2h-2v2h-2v2h-2l-2 4-9 9-4 2-6 7-6 4-17 14-14 10-17 12-23 15-27 15-25 13-27 12-37 14-36 11-39 9-29 5-36 4-17 1h-61l-28-2-37-5-36-7-28-7-29-9-28-10-30-13-34-17-24-14-6-3v-2l-5-2-15-10-4-2v-2l-5-2-6-5-3-1v-2l-4-1v-2l-4-2-5-3v-2l-4-1-3-3-3-2v-2l-4-2-7-5-3-4-5-3-14-14-8-7-16-16-7-8-9-9-4-7-5-5-8-9-5-8-4-4v-3l-3-1v-3h-2l-1-3-2-1v-3l-3-1-2-3v-3h-2l-3-5-1-4h-2l-1-5-3-1-6-11v-2h-2l-4-8v-2h-2l-2-7h-2l-4-9v-2h-2l-4-10-8-16-12-27-11-29-8-25-8-30-7-34-4-26-2-15-2-32v-61l2-31 5-36 5-26 9-36 11-35 13-33 12-27 14-27 10-17 4-7 8-12 1-3h2l2-5 8-11 1-3h2l1-4h2l2-5 9-11 3-5 2-1 3-5h2l2-5h2l2-4 14-16 8-8 6-7 6-5 5-6 8-7 4-2 2-4 11-9 10-9 14-11 19-14 16-11 22-14 21-12 29-15 32-14 27-10 31-10 32-8 36-7 28-4 25-2zm-14 55v1h61v-1zm-13 1v1h9v-1zm81 0v1h7v-1zm23 2m-129 1m137 0m-162 4m-6 1m-4 1m-10 2m-4 1m235 0m-239 1m-4 1m-5 1m-3 1m268 0m-272 1m-4 1m-4 1m-3 1m-11 3m-3 1m-3 1m-6 2m-3 1m-8 3m367 1m-378 3m389 1m-399 3m-2 1m-7 3m-2 1m-7 3m-25 12m493 1m-500 3m508 1m-515 3m522 1m2 1m1 1m-532 1m534 0m2 1m5 3m1 1m-555 3m562 1m3 2m2 1m1 1m3 2m-583 1m585 0m1 1m2 1m1 1m2 1m1 1m-604 3m610 1m1 1m2 1m1 1m2 1m1 1m-628 2m632 1m3 2m1 1m1 1m2 1m1 1m1 1m1 1m2 1m1 1m-661 1m666 3m3 2m1 1m1 1m1 1m1 1m1 1m2 1m-690 1m691 0m-692 1m693 0m1 1m1 1m1 1m1 1m1 1m-705 1m-1 1m-1 1m714 3m-391 8m61 0m-67 1m72 0m-86 3m105 1m8 2m-127 1m139 3m-150 1m158 2m-168 2m175 1m-183 3m189 0m-191 1m193 0m2 1m2 1m-490 1m287 0m205 0m289 0m-782 1m494 0m289 0m-784 1m497 0m-498 1m500 0m287 0m-788 1m503 0m-504 1m505 0m-506 1m508 0m284 0m-793 1m510 0m284 0m-795 1m513 0m283 0m-281 1m282 0m-281 1m282 0m-800 1m520 0m281 0m-802 1m522 0m281 0m-804 1m524 0m281 0 1 2zm-806 1m527 0m-528 1m529 0m279 0m-277 1m278 0m-277 1m278 0m1 1m-276 1m277 0m-276 1m277 0m-818 1m542 0m277 0m-276 1m2 1m275 0m-274 1m275 0m-274 1m275 0m-826 1m552 0m1 1 3 4 2-1-3-3zm275 1m-830 1m831 0m-832 1m833 0m-834 1m395 0m167 0m273 0 1 2zm-447 1 4 1zm54 0m121 0m-179 1m62 0m118 0m272 0m-838 1m567 0m272 0m-840 1m379 0m190 0m272 0m-467 1m196 0m-198 1m93 0m106 0m271 0m-270 1m271 0m-371 1m101 0m271 0m-481 1m211 0m271 0 1 2zm-368 1m98 0m-95 1m96 0m270 0m-364 1m95 0m270 0m-362 1m93 0m-317 1m226 0m92 0 2 4v-3zm-319 1m229 0m360 0m-858 1m268 0m232 0m359 0m-592 1m235 0m-236 1m238 0m87 0m269 0m-862 1m267 0m241 0m86 0m269 0m-864 1m596 0m-84 1m85 0m268 0m-351 1m84 0m268 0m-601 1m250 0m352 0m-603 1m253 0m82 0m-255 1m174 0m82 0m268 0m-525 1m177 0m81 0m268 0m-529 2m183 0m1 1m79 0m268 0m-878 1m532 0m79 0 1 2zm-77 1m345 0m-344 1m77 0m268 0m-540 1m196 0m77 0m-76 1m344 0m-343 1m76 0m268 0m-886 1m266 0m278 0m75 0m-74 1m75 0 1 2zm267 0m-341 1m342 0m-624 1m283 0m1 1m1 1m1 1m73 0m-72 1m340 0m-339 1m72 0m-71 1m339 0m-338 1m339 0m-338 1m71 0m-70 1m338 0m-337 1m70 0m-69 1m70 0m-69 1m337 0m-640 1m304 0m1 1m1 1m336 0m-910 1m575 0m1 1m67 0m268 0m-267 2m268 0m-334 1m1 1m1 1m334 0m-586 1m318 0m269 1m-333 1m65 0m-64 1m333 0m-268 1m1 2m269 0m-332 2m64 0m-63 1m64 1m-63 1m64 1m270 1m-332 1m333 1m-269 2m270 0m-330 4m332 0m-942 1m672 1m271 0m-331 2m61 0m271 0m1 2m-331 2m60 0m272 0m1 2m1 1 1 2zm1 3m1 2m1 2m1 2m2 4m2 5m-973 8m977 1m-978 1 1 2zm700 1m279 0m1 3m-336 1m337 1m1 2 1 2zm-986 2m988 3 1 2zm-991 4 1 2zm993 2m-994 2m995 0m1 4m-999 4m1e3 1m-1e3 2m1e3 1m-1006 7m1009 2m-1010 2m1011 1m1 4m-1015 4m1017 2m-1018 2m1019 0 1 2zm1 4m3 12m-356 2m0 2v36h1v-36zm357 0m-301 12v65h1v-65zm313 52m-369 4 1 4zm57 9m1 1m11 5m6 4m2 1m1 1m1 1m2 1m1 1m1 1m1 1m1 1m1 1m1 1m1 1m1 1m1 1m1 1m1 1m1 1m1 1m1 1 1 2zm1 2m1 1m1 1m1 2m2 3m2 4m-459 13 4 1zm-71 13m0 2 1 2zm483 3 1 3zm-221 13v1h14v-1zm-2 1m18 0m16 14m1 2 1 2zm-52 1 1 2zm53 1 1 3zm-297 1v183h1v-183zm-255 22m3 19m1 4 1 2zm1040 14m-1037 2m1 4 1 2zm1033 6m-1 4m-1029 2 1 2zm546 1m-65 1m66 0m-68 1m70 0m-548 1 1 2zm476 0m74 0m2 1m2 1m-83 1m84 0m2 1m2 1m466 0 1 2zm-465 1m-558 1 1 2zm463 0m97 0m1 1m1 1m460 0 1 2zm-458 1m-106 1m107 0m-564 1m456 0m109 0m1 1m454 0m-453 1m1 1m-117 1m118 0m1 1m1 1m1 1m446 0 1 2zm-445 1m-570 1 1 2zm444 0m127 0m-128 1m129 0m442 0 1 3zm-572 1m131 0m-572 1 1 2zm440 0m133 0 1 2zm439 1 1 2zm-438 1m1 1m-574 1m436 0m139 0m435 1 1 2zm-434 1m1 1 1 2zm432 0 1 3zm-431 2m-576 1m430 0m576 0 1 3zm-429 1m-576 2m577 0m427 0 1 2zm-426 1 1 2zm-577 2m578 0 1 2zm424 0 1 2zm-423 2 1 2zm422 1 1 2zm-999 2 1 2zm578 0m420 1 1 2zm-503 1v1h9v-1zm-494 1m491 0m12 0m-14 1m507 0 1 2zm-486 1m69 0m-67 1m1 1m482 0m-578 1m98 0m65 0 1 2zm-64 1m478 0 1 2zm-477 1m-514 1m515 0m63 0 1 2zm-62 1m474 0 1 2zm-989 1 1 2zm516 0m1 1 1 2zm-46 1m517 0m-987 1m517 0m1 1m468 0 1 2zm-467 2m1 1m465 0m-983 1m982 1 1 2zm-981 1 1 2zm980 1 1 2zm-979 2m978 1m-1 2 1 2zm-975 1 1 2zm974 2m-973 1m972 1m-971 1 1 2zm970 1 1 2zm-969 1 1 2zm1 2 1 2zm1 2 1 2zm965 0m-510 1m509 1m-963 1m962 1m-961 1m1 1 1 2zm503 1m455 1 1 2zm-957 1m395 0m61 0m1 1m499 0m-955 1m395 0 1 3zm165 0m-559 2m953 0m-952 2m394 0 1 2zm68 1m-461 1m463 0m22 0m464 0m-745 1m261 0m17 0m-481 1m393 0m160 0 1 2zm394 0m-946 2m393 0 1 2zm-392 2m393 0 1 2zm157 0m-549 2m548 0m-155 1m547 0m-939 1m546 0m-545 1 1 2zm392 0m545 0m-544 1 1 2zm-392 1 1 2zm542 1m-541 1 1 2zm392 0m541 0m-540 1m147 0m-539 1 1 2zm931 0m-538 1m-392 1 1 2zm393 0 1 2zm-392 2m393 0m1 1 1 2zm139 0m393 0m-925 1m1 1 1 2zm393 0m530 0m-529 1m135 0m202 0 1 2zm-730 1m394 1m-393 1m394 0m131 0m-130 1m129 0m205 0v34h1v-34zm-728 1m522 0m-521 1m394 0m126 0m395 0m-520 1m124 0m-518 1m395 0m122 0m-516 1 1 2zm395 0m120 0m396 0m-515 1m118 0m-513 1m396 0m116 0m-115 1m114 0m-510 1m183 0v34l1 7h1l-1-41zm326 0m-508 1 1 2zm507 0m398 0m-506 1m107 0m160 0v11h1v-11zm-665 1m401 1m-400 1m401 0m-400 1 1 2zm402 0m497 0m-664 1 1 3zm168 0m92 0m-494 1m404 0m-403 1 1 2zm404 0m2 1m-405 1m232 0v19h1v-19zm175 0m78 0m-484 1 1 2zm891 0m-481 1m-409 1m412 0m-411 1 1 2zm413 0m244 0 1 2zm-656 2m885 0m-462 1m38 0m-460 1m426 0m-425 1m654 0m227 0m-1 1m-879 1m1 1m1 1 1 2zm651 0m-650 2m1 1 1 2zm649 0 1 2zm-648 2m1 1 1 2zm867 0m-647 1 1 4zm646 0m-865 1m1 1m863 0m-1 1m-861 1m1 1m642 0m-641 1m216 0m641 0m-856 1 1 2zm216 1m-215 1m695 0 1 3zm-694 1 1 2zm851 0m-850 2m1 1m847 0m-846 1 1 2zm845 0m-1 1m-843 1m1 1m841 0m-840 1m152 0 1 2zm66 0m621 0m-838 1 1 2zm219 0m618 0m-616 1m-220 1m151 0 1 2zm-150 1m1 1m681 0m-680 1 1 2zm149 0 1 2zm-148 2m149 0 1 2zm-148 1m825 0m-824 1m148 0 1 2zm675 0m-822 2m148 0 1 2zm525 0m-672 1m819 0m-818 1m147 0 1 2zm670 0m-816 1m815 0m-814 1 1 3v-3zm146 0 1 2zm667 0m-1 1m-665 1m664 0m-809 1m663 0m-662 1m145 0m-144 1m145 0 1 2zm515 0m-659 1m658 0m145 0m-802 1m144 0m657 0m-800 1 2 4v-3zm144 0 1 2zm511 0m144 0m-1 1m-653 1m652 0m-651 1m507 0m-650 1m144 0m505 0m-648 1m1 1m1 1m1 1m143 0m-142 1m640 0m-639 1m638 0m-637 1m636 0m-635 1m143 0m-142 1m632 0m-488 1m487 0m-486 1m485 0m-484 1m1 1m479 1m-476 1m1 1m1 1m2 1m1 1m2 1m2 1m1 1m2 1m2 1m2 1m3 1m9 3m418 0m-415 1 4 1zm411 0m-564 7m1 1m1 1m1 1m1 1m1 1m1 1m1 1m1 1m1 1 1 2 2-1zm700 0m-697 2m695 0m-694 1m693 0m-692 1m691 0m-690 1m689 0m-688 1m1 1m684 0m-683 1m682 0m-680 1m679 0m-678 1m677 0m-676 1m675 0m-671 3m1 1m665 0m-663 1m1 1m1 1m1 1m1 1m2 1m1 1m1 1m2 1m1 1m1 1m2 1m633 0m-632 1m1 1m2 1m1 1m1 1m2 1m1 1m2 1m1 1m3 2m2 1m1 1m597 0m-596 1m2 1m1 1m2 1m3 2m2 1m575 0m-574 1m573 0m-571 1m1 1m2 1m1 1m2 1m2 1m1 1m2 1m1 1m2 1m539 1m-536 1m534 0m-532 1m2 1m2 1m1 1m6 3m1 1m4 2m2 1m2 1m2 1m2 1m480 1m-476 1m468 3m-460 1m9 4m4 2m2 1m3 1m4 2m3 1m2 1m397 3m-387 1m5 2m3 1m368 0m-365 1m3 1m3 1m3 1m2 1m4 1m3 1m3 1m321 0m-305 5m16 4m227 7m-25 4m-7 1m-97 3v1h6v-1zm60 0v1h8v-1zm-42 1v1h36v-1z" fill="#01CBFC"/>
<path transform="translate(905)" d="m0 0h239l29 7 22 8 17 9 12 8 13 10 14 13 9 11 10 13 9 16 8 17 6 19 4 20 1 7 1 24v92l1 2 33 13 27 12 21 10 19 10 20 11 28 17 33 22 19 14 13 10 20 16 6-2 22-13 52-30 22-12 21-8 21-5 15-2h33l25 4 19 6 17 7 18 10 15 11 10 9 7 6 7 8 13 17 9 15 12 21 30 52 14 24 30 52 14 25 9 21 6 22 3 21v32l-4 24-6 19-6 15-10 19-10 14-9 11-14 14-14 11-19 12-56 32-24 14h-2l5 34 4 39 2 39v50l-2 40-4 39-5 32 5 2 24 14 52 30 20 13 14 11 17 17 12 16 8 13 8 16 7 19 4 16 3 20v32l-3 19-6 23-9 21-12 22-14 24-30 52-14 24-16 28-14 24-10 16-9 12-11 12-11 11-13 10-20 12-20 9-20 6-15 3-18 2h-21l-23-3-23-6-21-9-24-13-67-39-3-2-5 1-10 9-28 21-18 13-11 7-15 10-32 19-24 13-38 19-33 14-21 8h-2v96l-1 23-4 23-5 16-6 16-9 17-11 16-9 11-17 17-13 10-20 12-20 9-20 6-24 5h-231l-28-6-17-5-16-7-15-8-17-12-13-12-12-12-10-13-11-18-9-19-7-22-4-22-1-13-1-107-27-11-30-13-25-12-25-13-23-13-24-15-12-8-19-13-19-14-14-11-11-9-4-3-4 1-20 11-24 14-19 11-21 12-16 8-15 6-23 6-24 3h-21l-23-3-23-6-21-9-15-8-17-12-13-12-12-12-12-16-9-15-30-52-14-24-16-28-15-26-14-24-10-18-9-20-6-20-4-21-1-12v-15l2-20 4-19 6-18 8-18 8-14 14-19 21-21 18-13 20-12 52-30 21-12-3-24-5-44-2-31v-76l3-39 3-28 4-26v-4l-52-30-24-14-15-9-13-9-13-11-14-14-10-13-9-14-8-15-8-21-5-21-2-13-1-12v-15l3-24 4-17 7-20 10-20 28-48 16-28 30-52 14-24 12-21 12-17 13-15 7-7 14-11 15-10 17-9 21-8 21-5 15-2h33l24 4 20 6 18 8 19 10 24 14 26 15 24 14 4 1 13-11 17-13 19-14 39-26 27-16 24-13 19-10 19-9 30-13 26-10 1-108 2-19 5-23 7-19 8-16 9-15 11-14 14-15 11-9 12-9 15-9 15-7 21-7zm2 56-14 3-12 4-16 8-11 7-11 9-10 10-12 17-8 16-5 15-3 14-1 8-1 134-3 9-2 4-18 9-32 12-35 15-27 13-22 12-21 12-22 14-15 10-17 12-12 9-13 10-13 11-10 8-11 8-7 3h-11l-11-4-24-14-23-13-24-14-26-15-16-8-16-6-18-4-7-1h-18l-20 4-18 6-17 9-12 9-10 9-8 9-9 13-17 29-16 28-10 17-16 28-15 26-14 24-12 21-8 17-6 21-1 6v32l4 19 6 16 9 15 10 14 6 7 17 13h2v2l9 5 26 16 12 6 16 10 12 6 13 8 19 11 9 7 3 3 3 8v12l-7 43-4 35-1 12-1 37v44l1 27 3 33 5 35 4 24v11l-3 8-3 3v2l-4 2-14 9-23 13-26 15-21 12-22 13-13 9-13 11-8 9-9 13-8 15-6 18-3 15v32l4 18 5 14 9 17 9 16 4 7 14 24 15 26 14 24 9 16 7 11 6 11 16 28 3 5h2l2 5 9 12 6 7 11 9 11 8 19 9 20 6 19 3h13l24-5 19-7 26-14 84-49 11-5h9l11 4 11 8 14 12 14 11 13 10 18 13 27 18 13 8 10 6 21 12 27 14 19 9 34 14 34 13 10 6 4 5 3 7 1 131 2 19 4 16 8 17 7 11 9 12 4 5h2v2l11 9 10 7 7 4 14 7 17 5 11 2h227l16-3 17-6 17-9 14-10 12-12 10-13 6-10 7-15 5-17 2-12 1-18 1-123 3-7 8-7 18-8 27-10 30-13 29-14 23-12 24-14 24-15 16-11 14-10 16-12 17-14 11-9 12-9 7-4h11l21 10 14 8 11 7 11 6 21 12 24 14 14 8 19 8 14 4 19 3h13l24-5 15-5 16-8 12-8 12-11 10-11 10-15 11-19 75-130 12-21 9-20 5-19 1-7v-26l-3-17-5-15-8-16-9-14-9-10-8-8-17-12-26-15-24-14-28-16-25-15-9-7-4-6-1-3v-14l8-52 3-31 1-14 1-54-1-38-3-36-5-38-4-26v-13l3-7 9-8 18-11 56-32 26-15 15-10 11-9 8-8 11-15 7-12 6-15 5-19 1-6v-27l-4-20-6-16-12-23-7-11-6-11-8-14-12-20-6-11-11-19-10-18-6-9-6-12-10-16-6-11-8-13-1-2h-2l-1-4h-2l-2-4-11-12-10-9-15-9-15-7-17-5-18-3h-17l-21 4-19 7-23 12-22 13-52 30-18 10-8 3h-12l-10-5-17-14-13-11-12-9-19-14-33-22-21-13-27-15-21-11-28-13-39-16-19-7-13-7-5-6-2-5-1-128-2-20-4-17-8-19-9-14-9-11-12-12-8-6-13-8-13-6-16-5-10-2z" fill="#010202"/>
<path transform="translate(1e3 640)" d="m0 0h36l30 5 21 6 21 8 17 9 4 2v2l5 1 13 9v2l5 2 10 9 8 7 8 8 7 8v3l3 1 1 3 4 4 8 13 4 7 8 15 9 23 6 23 3 17 1 17v128l20 10 10 8 10 10 8 13 7 16 1 5 1 25-1 281-2 10-5 12-5 9-6 8-7 8-13 9-15 7-15 4-10 1h-384l-13-2-21-8v-2l-6-2-3-2v-2l-5-2-9-10-6-7-1-5h-2l-5-10-3-12-1-10-1-251 1-41 2-13 5-13 7-12 9-10 7-7 14-9 9-5 1-1 1-130 2-22 5-23 8-24 12-25 7-11 10-14 9-11 19-19 14-11 10-7 13-8 15-8 17-7 25-7zm-3 56m-7 1 4 1zm54 0m-58 1m62 0m-70 2m-5 1m-2 1m93 0m7 2m-109 1m114 1m3 1m2 1m3 1m2 1m2 1m2 1m2 1m2 1m2 1m3 2m2 1m1 1m2 1m-173 1m174 0m-175 1m177 0m-180 2m183 0m1 1m1 1m2 1m1 1m-195 1m196 0m1 1m1 1m2 1m1 1m1 1m1 1m1 1m1 1m1 1m1 1m1 1m1 1m1 1m1 1m1 1m1 1m1 1m1 1m1 1m1 1m1 1m1 1m1 1m2 3m1 1m1 1m-252 1m254 2m1 1m3 5m1 1m1 2m2 3m4 7m2 4m2 4m12 36m3 70m0 2v36h1v-36zm0 68 1 4zm-356 63 4 1zm412 18 1 3zm-221 13v1h14v-1zm-2 1m18 0m16 14m1 2 1 2zm-52 1 1 2zm53 1 1 3zm5 79m-65 1m66 0m-68 1m70 0m-72 1m74 0m2 1m2 1m-83 1m84 0m2 1m2 1m1 1m-95 1m97 0m1 1m1 1m2 1m-106 1m107 0m-108 1m109 0m1 1m1 1m1 1m-117 1m118 0m1 1m1 1m1 1m1 1m-126 1m127 0m-128 1m129 0m-130 1m131 0m-132 1m133 0 1 2zm1 2m1 1m-138 1m139 0m1 2m1 1 1 2zm1 2m-146 1m147 1m1 2m1 1 1 2zm1 2 1 2zm1 2 1 2zm1 3m-83 2v1h9v-1zm-3 1m12 0m-14 1m21 1m69 0m-67 1m1 1m-96 1m98 0m65 0 1 2zm-64 1m1 1m1 1m63 0 1 2zm-62 1m1 1m1 1 1 2zm-46 1m47 1m1 1m1 2m1 1m-54 22m51 6m-107 2m61 0m1 1m-61 1 1 3zm165 0m-164 4 1 2zm68 1m2 1m22 0m-20 1m17 0m-88 1m160 0 1 2zm-159 2 1 2zm1 2 1 2zm157 0m-1 2m-155 1m154 1m-153 1m1 1 1 2zm150 2m-149 1m1 1m147 0m-146 2m1 1 1 2zm1 2m1 1 1 2zm139 0m-138 2m1 1m135 0m-134 2m1 1m131 0m-130 1m129 0m-1 1m-127 1m126 0m-125 1m124 0m-123 1m122 0m-121 1m120 0m-119 1m118 0m-117 1m116 0m-115 1m114 0m-1 1m-1 1m-108 1m107 0m160 0v11h1v-11zm-264 2m1 1m2 1m-167 1 1 3zm168 0m92 0m-90 1m1 1m2 1m-173 1v19h1v-19zm175 0m78 0m-74 2m3 1m2 1m244 0 1 2zm-233 3m38 0m-34 1m229 1m0 4m0 3 1 2zm-427 4 1 4z" fill="#010101"/>
<path transform="translate(1007,438)" d="m0 0h29l42 2 39 5 36 7 28 7 26 8 31 11 30 13 19 9 22 12 14 8 13 8 22 14v2l5 2 6 4v2l4 1 5 4 2 1v2l5 2v2l5 2v2l4 1 7 7 5 3 15 14 41 41 7 8 6 7v3l4 2 11 14 11 15v3l3 1 4 6v3h2l2 3v3h2v3h2v3h2v3h2l1 5h2l3 6v2h2l6 12 4 6 5 10 9 17 6 14 4 9 11 27 12 36 8 29 7 32 6 40 2 23 1 34v16l-1 38-2 24-5 35-7 33-9 34-14 41-5 14-6 12-8 19-10 19-13 23-13 21-10 15-7 9-3 5-6 8-1 2h-2l-2 5h-2l-1 4-5 5-4 6-3 3-7 8h-2l-1 4-14 14h-2v2h-2l-2 4-6 6h-2v2h-2v2h-2v2h-2l-2 4-9 9-4 2-6 7-6 4-17 14-14 10-17 12-23 15-27 15-25 13-27 12-37 14-36 11-39 9-29 5-36 4-17 1h-61l-28-2-37-5-36-7-28-7-29-9-28-10-30-13-34-17-24-14-6-3v-2l-5-2-15-10-4-2v-2l-5-2-6-5-3-1v-2l-4-1v-2l-4-2-5-3v-2l-4-1-3-3-3-2v-2l-4-2-7-5-3-4-5-3-14-14-8-7-16-16-7-8-9-9-4-7-5-5-8-9-5-8-4-4v-3l-3-1v-3h-2l-1-3-2-1v-3l-3-1-2-3v-3h-2l-3-5-1-4h-2l-1-5-3-1-6-11v-2h-2l-4-8v-2h-2l-2-7h-2l-4-9v-2h-2l-4-10-8-16-12-27-11-29-8-25-8-30-7-34-4-26-2-15-2-32v-61l2-31 5-36 5-26 9-36 11-35 13-33 12-27 14-27 10-17 4-7 8-12 1-3h2l2-5 8-11 1-3h2l1-4h2l2-5 9-11 3-5 2-1 3-5h2l2-5h2l2-4 14-16 8-8 6-7 6-5 5-6 8-7 4-2 2-4 11-9 10-9 14-11 19-14 16-11 22-14 21-12 29-15 32-14 27-10 31-10 32-8 36-7 28-4 25-2zm-24 55-27 3-35 6-27 6-29 8-32 11-26 11-29 14-27 15-20 13-16 11-19 14-13 11-5 4v2l-5 2-4 5-10 8-23 23-7 9-5 4-4 6-5 5-7 9-4 4v3l-3 1-8 11-1 4h-2l-10 15-11 17-12 21-14 27-14 32-10 27-10 34-7 30-6 36-3 30-1 16v47l3 35 4 29 8 39 10 35 9 26 11 27 6 11 4 10 6 12h2l2 6 3 7h2l2 6 2 4h2l1 5h2l1 5h2l2 5 6 9 1 3 4 4 7 10 9 12 11 14 9 10 7 8 5 5 3 5 19 19 11 9 14 13 10 8 17 13 11 8 9 6h2v2l3 2h3v2h3v2l11 6 9 6 11 6 15 8 33 15 35 13 30 9 29 7 33 6 33 4 13 1h66l32-3 37-6 34-8 33-10 32-12 23-10 16-8 28-15 18-11v-2l4-1 12-8 14-10 13-10 10-9 5-3 4-4 8-7 9-9 8-7 8-8 7-8 8-8 4-6 4-3 3-5 4-4v-2h2l6-9 2-1 1-3 4-4 4-6v-2h2v-3h2l5-7v-3h2l12-19 15-26 10-21 8-16 5-12 8-20 5-17 4-10 8-30 7-33 4-26 3-32 1-16v-35l-2-28-3-28-5-29-6-27-9-32-10-29-10-24-9-20h-2l-1-6-13-24-14-23-2-3h-2v-3h-2v-3h-2l-1-4-1-2h-2v-3l-2-1-1-3h-2v-3h-2l-1-4-4-4-2-4-5-5-3-5-2-1-1-3-7-6-6-9-5-5h-2l-2-5-27-27h-2v-2l-8-7-6-4-3-4-4-2-5-5-10-7-9-8h-3l-1-3-24-16-25-15-22-12-25-12-27-11-23-8-26-8-34-8-36-6-27-3z" fill="#010101"/>
<path transform="translate(833,1023)" d="m0 0 384 1 8 3 8 7 5 7 1 3 1 35v236l-2 20-4 8-7 6-10 4-6 1-330 1-47-1-10-3-10-8-5-9v-10h-1v-274l2-9 4-7 10-8zm404 21 1 3zm-221 13v1h14v-1zm-2 1m18 0m16 14m1 2 1 2zm-52 1 1 2zm53 1 1 3zm5 79m-65 1m66 0m-68 1m70 0m-72 1m74 0m2 1m2 1m-83 1m84 0m2 1m2 1m1 1m-95 1m97 0m1 1m1 1m2 1m-106 1m107 0m-108 1m109 0m1 1m1 1m1 1m-117 1m118 0m1 1m1 1m1 1m1 1m-126 1m127 0m-128 1m129 0m-130 1m131 0m-132 1m133 0 1 2zm1 2m1 1m-138 1m139 0m1 2m1 1 1 2zm1 2m-146 1m147 1m1 2m1 1 1 2zm1 2 1 2zm1 2 1 2zm1 3m-83 2v1h9v-1zm-3 1m12 0m-14 1m21 1m69 0m-67 1m1 1m-96 1m98 0m65 0 1 2zm-64 1m1 1m1 1m63 0 1 2zm-62 1m1 1m1 1 1 2zm-46 1m47 1m1 1m1 2m1 1m-54 22m51 6m-107 2m61 0m1 1m-61 1 1 3zm165 0m-164 4 1 2zm68 1m2 1m22 0m-20 1m17 0m-88 1m160 0 1 2zm-159 2 1 2zm1 2 1 2zm157 0m-1 2m-155 1m154 1m-153 1m1 1 1 2zm150 2m-149 1m1 1m147 0m-146 2m1 1 1 2zm1 2m1 1 1 2zm139 0m-138 2m1 1m135 0m-134 2m1 1m131 0m-130 1m129 0m-1 1m-127 1m126 0m-125 1m124 0m-123 1m122 0m-121 1m120 0m-119 1m118 0m-117 1m116 0m-115 1m114 0m-1 1m-1 1m-108 1m107 0m160 0v11h1v-11zm-264 2m1 1m2 1m-167 1 1 3zm168 0m92 0m-90 1m1 1m2 1m2 1m78 0m-74 2m3 1m2 1m244 0 1 2zm-233 3m38 0m-34 1m229 1m0 4m0 3 1 2zm-427 4 1 4z" fill="#42C73C"/>
<path transform="translate(1017,693)" d="m0 0h9l24 3 20 5 11 4 3 1 17 8 5 4 3 2 4 2 7 7 12 11 12 12 4 2 1 3 2 1 1 3 4 4 9 16 7 15 7 23 3 21 1 18v96l-1 16-316 1-2-1v-133l4-23 7-20 10-21 8-12 8-10 11-12 11-10 8-6 4-1 5-5 19-10 8-3 5-2 7-1 3-2 9-1 3-1 7-2zm-16 3m47 1m4 1m-70 2m86 2m7 2m8 3m2 1m3 1m2 1m2 1m2 1m2 1m2 1m2 1m3 2m8 5m-180 2m215 31m-250 3m258 8m1 1m1 2m2 3m4 7m2 4m2 4m12 36m3 70m0 2v36h1v-36z" fill="#01CBFC"/>
<path transform="translate(1018,1058)" d="m0 0h12l9 4 5 4 4 6 4 10 1 71 3 3 11 6 11 8 12 12 7 11 5 10 5 15 2 13v10l-3 15-8 20-10 15-10 10-15 9-11 5-8 2-9 1-4 2h-14l-20-5-17-7-9-7-8-6-10-13-8-15-5-18-1-6v-15l5-21 8-16 8-11 12-12 14-9 8-4 1-4 1-70 5-12 5-6 8-4zm1 147v1h9v-1zm-3 1m12 0m-14 1m21 1m2 1m1 1m2 1m1 1m1 1m1 1m1 1m1 1m1 1 1 2z" fill="#010101"/>
<path transform="translate(1014,1206)" d="m0 0h19l5 2 1 2 2 1 6 8 3 1v3l3 3 2 7-1 8-6 12-7 7-8 4h-19v-2l-5-1-7-5-1-2-4-5-4-10v-8l5-12 6-7z" fill="#09C9F7"/>
<path transform="translate(1292,1034)" d="m0 0 2 4 1 12v280l-1 9h-2zm1 252 1 2zm0 4v34h1v-34z" fill="#7BB083"/>
<path transform="translate(864,941)" d="m0 0h1l1 26h316v3l-316 1-2-1z" fill="#95A5A5"/>
<path transform="translate(1539,895)" d="m0 0 2 4 7 33 4 26 3 32 1 17v35l-3 37-3 25-6 32h-2l5-29 3-22 2-27v-70l-2-29-6-35-6-28z" fill="#84AAA9"/>
<path transform="translate(754,1099)" d="m0 0h1v232h-1l-1-25h-1v-54h1z" fill="#99A4AA"/>
<path transform="translate(1017,693)" d="m0 0h9l24 3-4 2-7-1h-37l-1-2z" fill="#88AA95"/>
<path transform="translate(1373,624)" d="m0 0 4 2 7 6v2l4 2 26 26 1 3-4-2-11-12-11-11-6-5v-2l-5-2z" fill="#93A6A3"/>
<path transform="translate(923,729)" d="m0 0v3l-23 23-2 3-2-1 12-14 10-10z" fill="#72AEBF"/>
<path transform="translate(636,1386)" d="m0 0 4 2 15 16 8 7v3l-15-14-12-12z" fill="#99A4AA"/>
<path transform="translate(1387,1409)" d="m0 0 2 1-14 14-3 1v-2h2l2-4z" fill="#86AC92"/>
<path transform="translate(1420,1375)" d="m0 0 2 1-7 8-8 8v-3l9-9z" fill="#85AC90"/>
<path transform="translate(1401,651)" d="m0 0 4 2 9 9 1 3-4-2-10-11z" fill="#99A4AA"/>
<path transform="translate(1373,624)" d="m0 0 4 2 7 6v2h2v2l-3-1v-2l-5-2z" fill="#80AE8A"/>
</svg>
